PathFileType	4	(X/Y/Z)	 1.9Hzhigh3min.trc
DataRate	CameraRate	NumFrames	NumMarkers	Units	OrigDataRate	OrigDataStartFrame	OrigNumFrames
200	200	11	35	m	200	751	1000
Frame#	Time	C7			LSH			RSH			MAN			RASI			LASI			HIPR			HIPL			RPSI			LPSI			COX			RTHI1			RTHI2			RTHI3			RTHI4			RSHA1			RSHA2			RSHA3			RSHA4			RHEEL			RMET5			RMET1			RTOE			LTHI1			LTHI2			LTHI3			LTHI4			LSHA1			LSHA2			LSHA3			LSHA4			LHEEL			LMET5			LMET1			LTOE			
		X1	Y1	Z1	X2	Y2	Z2	X3	Y3	Z3	X4	Y4	Z4	X5	Y5	Z5	X6	Y6	Z6	X7	Y7	Z7	X8	Y8	Z8	X9	Y9	Z9	X10	Y10	Z10	X11	Y11	Z11	X12	Y12	Z12	X13	Y13	Z13	X14	Y14	Z14	X15	Y15	Z15	X16	Y16	Z16	X17	Y17	Z17	X18	Y18	Z18	X19	Y19	Z19	X20	Y20	Z20	X21	Y21	Z21	X22	Y22	Z22	X23	Y23	Z23	X24	Y24	Z24	X25	Y25	Z25	X26	Y26	Z26	X27	Y27	Z27	X28	Y28	Z28	X29	Y29	Z29	X30	Y30	Z30	X31	Y31	Z31	X32	Y32	Z32	X33	Y33	Z33	X34	Y34	Z34	X35	Y35	Z35	
751	3.7550	-0.343821	1.582278	-0.551785	-0.284579	1.571939	-0.777305	-0.272224	1.566371	-0.344798	-0.185608	1.525676	-0.557529	-0.201259	1.068210	-0.437541	-0.182425	1.063516	-0.654249	-0.258855	1.118019	-0.392401	-0.243743	1.116487	-0.717219	-0.380860	1.101410	-0.504315	-0.377852	1.095688	-0.616762	-0.385365	1.109141	-0.556335	-0.265970	0.817266	-0.356090	-0.243455	0.764660	-0.339046	-0.182950	0.789867	-0.333572	-0.198854	0.846493	-0.350621	-0.324692	0.389106	-0.342093	-0.331511	0.348921	-0.355787	-0.272013	0.342853	-0.344785	-0.268638	0.381527	-0.335584	-0.462973	0.093848	-0.440973	-0.300059	0.026721	-0.345459	-0.245037	0.041310	-0.429038	-0.216180	0.030281	-0.424545	-0.200986	0.810913	-0.755890	-0.176409	0.754244	-0.759847	-0.117447	0.772673	-0.741171	-0.133389	0.831014	-0.735082	-0.248524	0.371758	-0.754027	-0.271160	0.338151	-0.752284	-0.218592	0.311725	-0.730056	-0.201822	0.352442	-0.735276	-0.445484	0.091330	-0.683712	-0.270774	0.025946	-0.748301	-0.222548	0.037128	-0.659349	-0.194151	0.028186	-0.662971	
752	3.7600	-0.344376	1.588193	-0.552028	-0.285219	1.578361	-0.777403	-0.272728	1.573000	-0.345104	-0.186105	1.532197	-0.557772	-0.199738	1.074556	-0.437589	-0.181256	1.069742	-0.654253	-0.256999	1.124476	-0.392702	-0.242671	1.122823	-0.717178	-0.379425	1.107368	-0.504052	-0.376557	1.101665	-0.616626	-0.384048	1.114937	-0.556147	-0.266579	0.823265	-0.356136	-0.244579	0.770434	-0.339033	-0.183848	0.795088	-0.333500	-0.199201	0.851870	-0.350595	-0.327269	0.392886	-0.341892	-0.333723	0.352654	-0.355521	-0.274208	0.347064	-0.344271	-0.271173	0.385776	-0.335113	-0.462101	0.096664	-0.439656	-0.299793	0.026695	-0.345331	-0.245011	0.041268	-0.428991	-0.216299	0.030205	-0.424657	-0.201897	0.816433	-0.756114	-0.177864	0.759542	-0.760151	-0.118710	0.777407	-0.741599	-0.134071	0.835865	-0.735444	-0.251199	0.375655	-0.754831	-0.273502	0.341811	-0.753064	-0.220573	0.315835	-0.731150	-0.204219	0.356728	-0.736371	-0.444634	0.093794	-0.684656	-0.270583	0.025949	-0.748269	-0.222565	0.037116	-0.659468	-0.194298	0.028200	-0.662989	
753	3.7650	-0.344976	1.594388	-0.552296	-0.285908	1.585083	-0.777503	-0.273298	1.579940	-0.345473	-0.186640	1.539015	-0.558039	-0.198119	1.081208	-0.437662	-0.180020	1.076234	-0.654217	-0.255054	1.131299	-0.392961	-0.241476	1.129457	-0.717065	-0.377883	1.113651	-0.503724	-0.375191	1.107941	-0.616457	-0.382670	1.121013	-0.555931	-0.267273	0.829571	-0.356152	-0.245807	0.776503	-0.339063	-0.184855	0.800580	-0.333410	-0.199612	0.857506	-0.350535	-0.330048	0.396878	-0.341716	-0.336079	0.356577	-0.355243	-0.276560	0.351515	-0.343715	-0.273916	0.390276	-0.334630	-0.461113	0.099660	-0.438275	-0.299519	0.026678	-0.345214	-0.244979	0.041210	-0.428948	-0.216440	0.030113	-0.424779	-0.202925	0.822241	-0.756383	-0.179476	0.765120	-0.760533	-0.120116	0.782386	-0.742175	-0.134843	0.840960	-0.735935	-0.254088	0.379837	-0.755714	-0.276035	0.345760	-0.753906	-0.222710	0.320236	-0.732395	-0.206798	0.361320	-0.737626	-0.443668	0.096471	-0.685562	-0.270391	0.025964	-0.748200	-0.222576	0.037111	-0.659617	-0.194449	0.028217	-0.663020	
754	3.7700	-0.345616	1.600811	-0.552588	-0.286641	1.592059	-0.777606	-0.273929	1.587152	-0.345899	-0.187219	1.546075	-0.558331	-0.196417	1.088131	-0.437751	-0.178712	1.082973	-0.654139	-0.253045	1.138470	-0.393172	-0.240171	1.136350	-0.716879	-0.376256	1.120232	-0.503329	-0.373763	1.114477	-0.616256	-0.381236	1.127337	-0.555693	-0.268044	0.836152	-0.356155	-0.247115	0.782847	-0.339136	-0.185946	0.806288	-0.333231	-0.200104	0.863375	-0.350442	-0.332986	0.401046	-0.341544	-0.338536	0.360675	-0.354948	-0.279034	0.356174	-0.343120	-0.276815	0.394989	-0.334128	-0.459998	0.102843	-0.436814	-0.299227	0.026676	-0.345113	-0.244946	0.041141	-0.428902	-0.216606	0.030007	-0.424907	-0.204046	0.828323	-0.756694	-0.181220	0.770964	-0.760981	-0.121639	0.787591	-0.742875	-0.135687	0.846281	-0.736542	-0.257139	0.384279	-0.756647	-0.278714	0.349976	-0.754799	-0.224961	0.324926	-0.733772	-0.209523	0.366207	-0.739004	-0.442565	0.099380	-0.686466	-0.270197	0.025996	-0.748101	-0.222583	0.037111	-0.659798	-0.194609	0.028235	-0.663063	
755	3.7750	-0.346294	1.607417	-0.552904	-0.287403	1.599241	-0.777708	-0.274615	1.594590	-0.346375	-0.187848	1.553327	-0.558649	-0.194645	1.095292	-0.437846	-0.177331	1.089949	-0.654020	-0.250841	1.145893	-0.393428	-0.238768	1.143458	-0.716654	-0.374547	1.127072	-0.502868	-0.372280	1.121233	-0.616025	-0.379754	1.133886	-0.555429	-0.268881	0.842953	-0.356174	-0.248489	0.789415	-0.339250	-0.187129	0.812180	-0.333062	-0.200671	0.869447	-0.350329	-0.336035	0.405373	-0.341360	-0.341067	0.364919	-0.354645	-0.281585	0.361023	-0.342493	-0.279828	0.399901	-0.333597	-0.458739	0.106209	-0.435278	-0.298917	0.026692	-0.345024	-0.244910	0.041061	-0.428844	-0.216806	0.029928	-0.425011	-0.205233	0.834648	-0.757043	-0.183067	0.777047	-0.761486	-0.123246	0.793000	-0.743686	-0.136590	0.851797	-0.737247	-0.260304	0.388978	-0.757618	-0.281488	0.354433	-0.755728	-0.227288	0.329888	-0.735258	-0.212349	0.371361	-0.740477	-0.441324	0.102481	-0.687338	-0.269982	0.026044	-0.747982	-0.222589	0.037117	-0.660017	-0.194778	0.028258	-0.663119	
756	3.7800	-0.347004	1.614168	-0.553244	-0.288186	1.606574	-0.777807	-0.275348	1.602213	-0.346875	-0.188541	1.560748	-0.558992	-0.192823	1.102651	-0.437942	-0.175879	1.097136	-0.653863	-0.248640	1.153605	-0.393613	-0.237283	1.150750	-0.716397	-0.372769	1.134127	-0.502344	-0.370746	1.128175	-0.615759	-0.378229	1.140622	-0.555149	-0.269763	0.849954	-0.356184	-0.249914	0.796165	-0.339422	-0.188375	0.818227	-0.332891	-0.201270	0.875703	-0.350213	-0.339142	0.409839	-0.341171	-0.343632	0.369280	-0.354335	-0.284175	0.366048	-0.341842	-0.282900	0.404990	-0.333048	-0.457321	0.109743	-0.433685	-0.298588	0.026721	-0.344946	-0.244897	0.041028	-0.428721	-0.217040	0.029884	-0.425081	-0.206464	0.841186	-0.757425	-0.184984	0.783340	-0.762042	-0.124912	0.798597	-0.744591	-0.137532	0.857485	-0.738028	-0.263541	0.393893	-0.758606	-0.284314	0.359120	-0.756678	-0.229642	0.335099	-0.736829	-0.215226	0.376759	-0.742015	-0.439929	0.105782	-0.688210	-0.269756	0.026108	-0.747846	-0.222595	0.037138	-0.660281	-0.194956	0.028290	-0.663190	
757	3.7850	-0.347736	1.621022	-0.553605	-0.288979	1.614008	-0.777900	-0.276107	1.609943	-0.347396	-0.189297	1.568290	-0.559358	-0.190966	1.110176	-0.438033	-0.174359	1.104512	-0.653674	-0.246463	1.161574	-0.393727	-0.235740	1.158189	-0.716133	-0.370945	1.141361	-0.501790	-0.369168	1.135268	-0.615464	-0.376648	1.147525	-0.554822	-0.270674	0.857118	-0.356192	-0.251379	0.803080	-0.339591	-0.189660	0.824404	-0.332716	-0.201881	0.882092	-0.350080	-0.342273	0.414426	-0.340986	-0.346191	0.373751	-0.354021	-0.286770	0.371225	-0.341168	-0.285992	0.410226	-0.332489	-0.455703	0.113440	-0.432078	-0.298247	0.026768	-0.344880	-0.244926	0.041058	-0.428505	-0.217310	0.029905	-0.425090	-0.207715	0.847910	-0.757839	-0.186946	0.789821	-0.762640	-0.126605	0.804354	-0.745579	-0.138497	0.863325	-0.738869	-0.266811	0.399004	-0.759589	-0.287154	0.364008	-0.757633	-0.231987	0.340534	-0.738456	-0.218125	0.382382	-0.743591	-0.438349	0.109289	-0.689113	-0.269509	0.026183	-0.747708	-0.222600	0.037179	-0.660594	-0.195143	0.028334	-0.663288	
758	3.7900	-0.348478	1.627936	-0.553991	-0.289775	1.621498	-0.777983	-0.276887	1.617733	-0.347945	-0.190110	1.575917	-0.559744	-0.189091	1.117821	-0.438110	-0.172786	1.112042	-0.653453	-0.244272	1.169737	-0.393820	-0.234155	1.165748	-0.715869	-0.369096	1.148720	-0.501220	-0.367553	1.142477	-0.615141	-0.375017	1.154566	-0.554463	-0.271592	0.864400	-0.356186	-0.252873	0.810113	-0.339760	-0.191000	0.830682	-0.332542	-0.202531	0.888587	-0.349931	-0.345382	0.419102	-0.340784	-0.348714	0.378322	-0.353707	-0.289343	0.376533	-0.340469	-0.289072	0.415574	-0.331920	-0.453899	0.117286	-0.430440	-0.297894	0.026836	-0.344826	-0.244998	0.041165	-0.428189	-0.217611	0.030004	-0.425016	-0.208966	0.854787	-0.758274	-0.188925	0.796460	-0.763276	-0.128300	0.810249	-0.746627	-0.139462	0.869298	-0.739758	-0.270081	0.404287	-0.760560	-0.289972	0.369054	-0.758566	-0.234300	0.346167	-0.740115	-0.221011	0.388197	-0.745180	-0.436563	0.112984	-0.690048	-0.269241	0.026267	-0.747565	-0.222604	0.037249	-0.660961	-0.195336	0.028397	-0.663423	
759	3.7950	-0.349223	1.634876	-0.554402	-0.290563	1.628998	-0.778054	-0.277676	1.625532	-0.348526	-0.190966	1.583590	-0.560142	-0.187210	1.125547	-0.438177	-0.171173	1.119681	-0.653208	-0.242071	1.178046	-0.393907	-0.232547	1.173403	-0.715623	-0.367238	1.156155	-0.500642	-0.365906	1.149781	-0.614794	-0.373351	1.161713	-0.554069	-0.272509	0.871776	-0.356142	-0.254373	0.817232	-0.339905	-0.192349	0.837063	-0.332409	-0.203173	0.895147	-0.349773	-0.348422	0.423858	-0.340573	-0.351185	0.382979	-0.353412	-0.291866	0.381959	-0.339742	-0.292112	0.421034	-0.331327	-0.451869	0.121257	-0.428802	-0.297538	0.026924	-0.344773	-0.245104	0.041357	-0.427771	-0.217934	0.030188	-0.424835	-0.210199	0.861771	-0.758729	-0.190889	0.803225	-0.763944	-0.129980	0.816258	-0.747716	-0.140418	0.875376	-0.740676	-0.273332	0.409711	-0.761505	-0.292748	0.374229	-0.759459	-0.236560	0.351972	-0.741790	-0.223862	0.394170	-0.746770	-0.434565	0.116845	-0.691004	-0.268960	0.026369	-0.747428	-0.222602	0.037354	-0.661384	-0.195525	0.028491	-0.663620	
760	3.8000	-0.349960	1.641798	-0.554836	-0.291331	1.636466	-0.778112	-0.278469	1.633298	-0.349141	-0.191849	1.591271	-0.560548	-0.185338	1.133304	-0.438230	-0.169540	1.127375	-0.652946	-0.239979	1.186489	-0.393946	-0.230930	1.181122	-0.715383	-0.365386	1.163617	-0.500078	-0.364234	1.157145	-0.614430	-0.371664	1.168942	-0.553652	-0.273407	0.879210	-0.356045	-0.255861	0.824407	-0.340005	-0.193682	0.843489	-0.332291	-0.203759	0.901738	-0.349618	-0.351387	0.428659	-0.340416	-0.353556	0.387695	-0.353098	-0.294320	0.387467	-0.339005	-0.295092	0.426571	-0.330753	-0.449598	0.125337	-0.427168	-0.297174	0.027037	-0.344729	-0.245248	0.041643	-0.427244	-0.218273	0.030446	-0.424532	-0.211394	0.868843	-0.759198	-0.192817	0.810085	-0.764636	-0.131632	0.822357	-0.748826	-0.141348	0.881541	-0.741603	-0.276546	0.415238	-0.762405	-0.295461	0.379510	-0.760299	-0.238746	0.357918	-0.743454	-0.226667	0.400284	-0.748356	-0.432334	0.120877	-0.692002	-0.268666	0.026507	-0.747308	-0.222587	0.037504	-0.661867	-0.195702	0.028615	-0.663899	
761	3.8050	-0.350681	1.648672	-0.555290	-0.292066	1.643862	-0.778156	-0.279256	1.640986	-0.349787	-0.192743	1.598911	-0.560955	-0.183483	1.141051	-0.438272	-0.167903	1.135070	-0.652675	-0.237850	1.194950	-0.394060	-0.229320	1.188881	-0.715161	-0.363559	1.171077	-0.499525	-0.362551	1.164537	-0.614059	-0.369966	1.176230	-0.553220	-0.274276	0.886665	-0.355888	-0.257316	0.831607	-0.340033	-0.194974	0.849918	-0.332198	-0.204304	0.908321	-0.349473	-0.354268	0.433482	-0.340317	-0.355815	0.392452	-0.352777	-0.296693	0.393033	-0.338271	-0.298001	0.432158	-0.330213	-0.447075	0.129525	-0.425528	-0.296795	0.027192	-0.344692	-0.245411	0.041994	-0.426635	-0.218612	0.030770	-0.424097	-0.212539	0.875966	-0.759683	-0.194693	0.817009	-0.765343	-0.133246	0.828523	-0.749935	-0.142238	0.887776	-0.742533	-0.279705	0.420843	-0.763249	-0.298093	0.384855	-0.761071	-0.240855	0.363981	-0.745101	-0.229422	0.406509	-0.749922	-0.429861	0.125062	-0.693038	-0.268346	0.026664	-0.747201	-0.222552	0.037705	-0.662409	-0.195860	0.028765	-0.664283	
